<svg xmlns="http://www.w3.org/2000/svg" xmlns:xlink="http://www.w3.org/1999/xlink" viewBox="0 0 81.066 67.666"><defs><linearGradient id="a"><stop offset="0"/><stop offset="1" stop-opacity="0"/></linearGradient><linearGradient xlink:href="#a" id="c" gradientUnits="userSpaceOnUse" gradientTransform="matrix(.10118 0 0 1 -520.168 -1.515)" x1="349.043" y1="512.436" x2="513.78" y2="512.183"/><linearGradient xlink:href="#a" id="d" gradientUnits="userSpaceOnUse" gradientTransform="matrix(.10118 0 0 1 413.678 -1.263)" x1="349.043" y1="512.436" x2="513.78" y2="512.183"/><mask maskUnits="userSpaceOnUse" id="b"><ellipse cx="461.545" cy="516.946" rx="26.631" ry="23.613" transform="rotate(-.589)" fill="#ffdd67"/></mask></defs><g transform="translate(-430.143 -481.198)"><circle transform="rotate(-7.875)" r="30" cy="573.461" cx="395.572" fill="#ffdd67"/><path d="M484.911 525.982c-1.88-3.375-5.577-5.286-13.402-4.204-7.925 1.096-10.865 3.926-11.758 7.684-.433 1.978.982 4.912.982 4.912 1.822 3.685 1.775 4.802 12.968 3.253 11.193-1.548 10.845-2.61 11.598-6.651 0 0 .665-3.222-.388-4.994" fill="#664e27"/><path d="M481.109 525.498a.778.778 0 0 0-.308-.765s-2.282-1.905-9.018-.974c-6.736.932-8.416 3.385-8.416 3.385-.184.127-.13.523-.088.82l.28.567c.14.284.366.454.564.427l16.443-2.274c.198-.028.468-.267.427-.564l.116-.622" fill="#fff"/><g fill="#65b1ef"><path d="M486.7 540.372l6.736-.931c6.766-10.93-4.227-19.606-3.192-29.643-2.278.315-4.214 3.107-6.393 3.408-1.868 9.85 9.615 16.236 2.849 27.166M461.935 543.798l-6.735.931c-9.48-8.683-1.255-20.017-4.975-29.395 2.278-.315 4.9 1.846 7.078 1.544 4.472 8.972-4.847 18.237 4.632 26.92"/></g><g fill="#917524"><path d="M477.154 499.091a14.245 14.245 0 0 0 11.854 2.5c.58-.182 1.18 1.956.5 2.151-4.8 1.068-9.787.041-13.635-2.96-.663-.413.83-2.032 1.28-1.691M449.286 507.085c4.215-.18 8.17-2.241 10.73-5.624.342-.45 2.218.703 1.791 1.267-2.888 3.933-7.51 6.288-12.319 6.55-.891.123-.796-2.111-.202-2.193"/></g><g fill="#664e27"><path d="M474.043 511.635c5.256 7.35 13.676 6.185 16.74-2.315.144-.424-.379-.553-1.127-.854-3.708 3.845-10.584 4.493-14.76 2.042-.539.478-1.106.759-.853 1.127M449.576 515.02c5.256 7.349 13.676 6.184 16.74-2.316.144-.423-.379-.553-1.127-.853-3.708 3.844-10.584 4.492-14.76 2.041-.638.492-1.106.759-.853 1.128"/></g><g transform="matrix(1.1176 -.1414 .16259 1.26 -134.596 -65.475)" mask="url(#b)"><path transform="scale(-1 1)" d="M-478.52 490.162l14.865-2.544 6.066 47.51-22.986 1.264z" fill="url(#c)"/><path d="M455.238 489.167l14.613-.577.376 49.517-15.56-.997z" fill="url(#d)"/></g><ellipse transform="rotate(-7.875)" ry="1.861" rx="13.087" cy="602.908" cx="371.709" fill="#65b1ef"/><path d="M457.248 483.968a31.408 31.408 0 0 0-26.809 35.415 31.408 31.408 0 0 0 35.415 26.808 31.408 31.408 0 0 0 .26-.046l-8.603-62.201a31.408 31.408 0 0 0-.263.024z" fill="#ffdd67"/><path d="M462.699 523.376c-8.297 1.148-11.374 4.11-12.31 8.044-.453 2.07 1.028 5.142 1.028 5.142 1.907 3.858 1.858 5.028 13.577 3.407.099-.014.163-.027.26-.04l-2.294-16.585c-.089.012-.171.02-.261.032z" fill="#664e27"/><path d="M462.985 525.45c-7.052.975-8.811 3.543-8.811 3.543-.193.133-.135.548-.092.86l.293.592c.147.297.383.476.59.447l8.87-1.227-.588-4.247c-.09.012-.17.02-.262.032z" fill="#fff"/><path d="M452.676 546.428l-7.052.976c-9.924-9.091-1.314-20.957-5.208-30.776 2.385-.33 5.129 1.933 7.41 1.618 4.682 9.393-5.074 19.092 4.85 28.182" fill="#65b1ef"/><path d="M439.433 507.992a14.914 14.914 0 0 0 11.234-5.887c.357-.472 2.321.736 1.874 1.326-3.024 4.117-7.861 6.583-12.897 6.857-.933.13-.834-2.21-.211-2.296" fill="#917524"/><path d="M439.736 516.3c5.503 7.694 14.318 6.474 17.526-2.425.15-.443-.397-.579-1.18-.893-3.882 4.025-11.081 4.703-15.452 2.137-.669.515-1.159.795-.894 1.18" fill="#664e27"/><ellipse cx="-419.594" cy="602.908" rx="13.087" ry="1.861" transform="scale(-1 1) rotate(7.875)" fill="#65b1ef"/><path d="M475.13 481.494a31.408 31.408 0 0 1 35.415 26.809 31.408 31.408 0 0 1-26.809 35.415 31.408 31.408 0 0 1-.262.026l-8.604-62.201a31.408 31.408 0 0 1 .26-.049z" fill="#ffdd67"/><path d="M480.58 520.903c8.297-1.148 12.063.868 14.031 4.4.999 1.87.407 5.228.407 5.228-.788 4.231-.423 5.344-12.142 6.964-.1.014-.165.02-.262.033l-2.294-16.585c.089-.013.17-.028.26-.04z" fill="#664e27"/><path d="M480.868 522.977c7.052-.976 9.442 1.018 9.442 1.018.222.075.278.49.321.802l-.12.65c-.06.326-.24.562-.447.59l-8.87 1.227-.587-4.247c.09-.013.17-.028.26-.04z" fill="#fff"/><path d="M496.485 540.369l7.052-.976c7.083-11.443-4.425-20.526-3.342-31.033-2.385.33-4.412 3.252-6.693 3.568-1.956 10.311 10.066 16.998 2.983 28.44" fill="#65b1ef"/><path d="M498.797 499.781a14.914 14.914 0 0 1-12.41-2.617c-.472-.357-2.035 1.339-1.444 1.785 4.028 3.142 9.353 4.203 14.274 3.1.933-.13.203-2.354-.42-2.268" fill="#917524"/><path d="M500.76 507.859c-3.208 8.899-12.023 10.118-17.526 2.424-.265-.386.225-.665.894-1.18 4.829 2.82 11.941 1.519 15.452-2.138.783.315 1.33.45 1.18.894" fill="#664e27"/></g></svg>