<svg xmlns="http://www.w3.org/2000/svg" viewBox="0 0 150 150"><g fill="none"><path d="M75 2.091v7.146M75 2.091v7.146M75 2.091v7.146M138.14 111.454l-6.187-3.572" stroke-width="2.28344375"/><g transform="scale(3.6535) rotate(30 995.228 -207.245)"><circle r="20" cy="477.362" cx="265"/><path d="M265 457.406v1.956" stroke-width=".625"/></g><path d="M126.554 23.446l-5.052 5.052M145.424 93.87l-6.902-1.85M126.554 126.554l-5.052-5.052M126.554 126.554l-5.052-5.052M126.554 126.554l-5.052-5.052M56.13 145.424l1.85-6.902M56.13 145.424l1.85-6.902M56.13 145.424l1.85-6.902M38.546 138.14l3.572-6.187M38.546 138.14l3.572-6.187M38.546 138.14l3.572-6.187M11.86 111.454l6.187-3.572M11.86 111.454l6.187-3.572M11.86 111.454l6.187-3.572M11.86 38.546l6.187 3.572M11.86 38.546l6.187 3.572M11.86 38.546l6.187 3.572M23.446 23.446l5.052 5.052M23.446 23.446l5.052 5.052M23.446 23.446l5.052 5.052" stroke-width="2.28344375"/></g></svg>
